<?xml version="1.0" encoding="UTF-8" standalone="no"?>
<!-- Generator: Adobe Illustrator 19.0.0, SVG Export Plug-In . SVG Version: 6.00 Build 0)  -->

<svg
   xmlns:dc="http://purl.org/dc/elements/1.1/"
   xmlns:cc="http://creativecommons.org/ns#"
   xmlns:rdf="http://www.w3.org/1999/02/22-rdf-syntax-ns#"
   xmlns="http://www.w3.org/2000/svg"
   xmlns:sodipodi="http://sodipodi.sourceforge.net/DTD/sodipodi-0.dtd"
   xmlns:inkscape="http://www.inkscape.org/namespaces/inkscape"
   version="1.1"
   id="Layer_1"
   x="0px"
   y="0px"
   width="100%"
   height="100%"
   viewBox="0 0 512.001 512.001"
   style="enable-background:new 0 0 512.001 512.001;"
   xml:space="preserve"
   sodipodi:docname="025-panel-centered.svg"
   inkscape:version="0.92.3 (2405546, 2018-03-11)"><metadata
   id="metadata83"><rdf:RDF><cc:Work
       rdf:about=""><dc:format>image/svg+xml</dc:format><dc:type
         rdf:resource="http://purl.org/dc/dcmitype/StillImage" /><dc:title></dc:title></cc:Work></rdf:RDF></metadata><defs
   id="defs81" /><sodipodi:namedview
   pagecolor="#ffffff"
   bordercolor="#666666"
   borderopacity="1"
   objecttolerance="10"
   gridtolerance="10"
   guidetolerance="10"
   inkscape:pageopacity="0"
   inkscape:pageshadow="2"
   inkscape:window-width="1409"
   inkscape:window-height="924"
   id="namedview79"
   showgrid="false"
   inkscape:zoom="0.98"
   inkscape:cx="268.73703"
   inkscape:cy="256.00049"
   inkscape:window-x="142"
   inkscape:window-y="26"
   inkscape:window-maximized="0"
   inkscape:current-layer="Layer_1" />
<path
   style="fill:#8fcc05"
   d="m 315.60092,429.541 c 32.673,18.864 32.835,49.445 0.374,68.309 -32.461,18.864 -85.256,18.87 -117.928,0.006 -32.672,-18.864 -32.845,-49.45 -0.384,-68.314 32.461,-18.864 85.265,-18.865 117.938,-10e-4 z"
   id="path2"
   inkscape:connector-curvature="0" />
<g
   id="g8"
   transform="translate(-10.204082)">
	<path
   style="fill:#a66206"
   d="m 315.255,28.707 c 0.304,-7.403 -4.429,-14.87 -14.216,-20.52 -18.908,-10.916 -49.465,-10.916 -68.249,0 -9.361,5.44 -14.03,12.566 -14.021,19.696 0,-0.023 -0.003,-0.046 -0.003,-0.069 v 436.632 c -0.021,7.2 3.552,14.41 13.066,19.904 18.908,10.916 49.459,10.912 68.243,-0.004 9.333,-5.424 15.185,-12.522 15.206,-19.629 V 28.085 c 10e-4,0.208 -0.017,0.415 -0.026,0.622 z"
   id="path4"
   inkscape:connector-curvature="0" />
	<path
   style="fill:#a66206"
   d="m 315.283,28.085 v 436.632 c -0.02,7.108 -5.872,14.206 -15.206,19.629 -18.784,10.916 -49.336,10.92 -68.242,0.004 -9.514,-5.493 -13.087,-12.704 -13.066,-19.904 V 27.816 c -0.021,7.2 4.732,14.41 14.246,19.904 18.908,10.916 49.459,10.912 68.242,-0.004 9.333,-5.424 14.006,-12.522 14.026,-19.631 z"
   id="path6"
   inkscape:connector-curvature="0" />
</g>
<path
   style="fill:#884d01"
   d="m 291.05192,47.716 c 9.333,-5.424 14.006,-12.522 14.026,-19.629 v 436.632 c -0.02,7.108 -5.872,14.206 -15.206,19.63 z"
   id="path10"
   inkscape:connector-curvature="0" />
<path
   style="fill:#d07400"
   d="m 290.83592,8.187 c 18.908,10.916 19,28.613 0.217,39.529 -18.784,10.916 -49.336,10.92 -68.242,0.004 -18.908,-10.916 -19.007,-28.616 -0.223,-39.532 18.784,-10.916 49.34,-10.917 68.248,-0.001 z"
   id="path12"
   inkscape:connector-curvature="0" />
<polygon
   style="fill:#884d01"
   points="146.216,193.583 189.077,168.685 140.566,196.877 97.705,221.774 "
   id="polygon14"
   transform="translate(-10.204082)" />
<g
   id="g20"
   transform="translate(-10.204082)">
	<polygon
   style="fill:#a66206"
   points="189.077,168.685 140.566,196.877 97.705,221.774 140.285,296.008 365.504,426.037 414.014,397.846 371.439,323.62 414.296,298.716 "
   id="polygon16" />
	<polygon
   style="fill:#a66206"
   points="371.435,323.613 414.014,397.846 365.504,426.037 322.924,351.805 "
   id="polygon18" />
</g>
<polygon
   style="fill:#f18700"
   points="189.077,168.685 414.296,298.716 365.785,326.906 140.566,196.877 "
   id="polygon22"
   transform="translate(-10.204082)" />
<polygon
   style="fill:#d07400"
   points="322.924,351.805 365.504,426.037 140.285,296.008 97.705,221.774 140.566,196.877 365.785,326.906 "
   id="polygon24"
   transform="translate(-10.204082)" />
<polygon
   style="fill:#884d01"
   points="146.215,116.541 189.081,91.641 140.571,119.832 97.705,144.732 "
   id="polygon26"
   transform="translate(-10.204082)" />
<g
   id="g32"
   transform="translate(-10.204082)">
	<polygon
   style="fill:#a66206"
   points="146.496,17.413 97.986,45.604 140.571,119.832 97.705,144.732 322.92,274.761 365.786,249.86 414.296,221.669 371.711,147.44 "
   id="polygon28" />
	<polygon
   style="fill:#a66206"
   points="371.711,147.44 414.296,221.669 365.786,249.86 323.201,175.632 "
   id="polygon30" />
</g>
<polygon
   style="fill:#f18700"
   points="146.496,17.413 371.711,147.44 323.201,175.632 97.986,45.604 "
   id="polygon34"
   transform="translate(-10.204082)" />
<polygon
   style="fill:#d07400"
   points="365.786,249.86 322.92,274.761 97.705,144.732 140.571,119.832 97.986,45.604 323.201,175.632 "
   id="polygon36"
   transform="translate(-10.204082)" />
<g
   id="g46"
   transform="translate(-10.204082)">
	<polygon
   style="fill:#a66206"
   points="167.754,106.299 167.665,137.711 312.477,221.318 312.565,189.906 "
   id="polygon38" />
	<polygon
   style="fill:#a66206"
   points="192.748,164.051 192.715,175.933 313.147,245.465 313.182,233.583 "
   id="polygon40" />
	<polygon
   style="fill:#a66206"
   points="146.098,219.934 146.01,251.346 290.82,334.954 290.91,303.541 "
   id="polygon42" />
	<polygon
   style="fill:#a66206"
   points="146.043,262.345 146.01,274.226 266.443,343.759 266.476,331.876 "
   id="polygon44" />
</g>
</svg>
